<?xml version="1.0" encoding="UTF-8"?>
<svg version="1.1" xmlns="http://www.w3.org/2000/svg" width="821" height="304">
<path d="M0 0 C2.36246505 3.54369758 2.27004845 5.10250808 2.31884766 9.30737305 C2.34865219 11.25905647 2.34865219 11.25905647 2.37905884 13.25016785 C2.39093531 14.67068309 2.40259816 16.09120012 2.4140625 17.51171875 C2.43277235 18.96475833 2.45234562 20.41778703 2.4727478 21.87080383 C2.52409464 25.69297877 2.56370653 29.51518895 2.60089111 33.33752441 C2.64091487 37.238777 2.69201461 41.1398827 2.7421875 45.04101562 C2.83897694 52.69390967 2.92337189 60.34687472 3 68 C3.4058432 67.24133133 3.8116864 66.48266266 4.22982788 65.70100403 C4.7654837 64.70759506 5.30113953 63.7141861 5.85302734 62.69067383 C6.64741714 61.21235832 6.64741714 61.21235832 7.45785522 59.70417786 C13.54501936 49.030229 23.41946015 44.08836809 34.375 39.625 C47.06472204 37.43711689 57.47015855 39.20657858 68.25 46.1875 C76.64887928 52.46008073 82.31909857 61.22955358 86 71 C86.33 73.64 86.66 76.28 87 79 C68.19 79 49.38 79 30 79 C33.96696674 103.33333622 33.96696674 103.33333622 49.01171875 121.40625 C55.22850147 124.82609118 61.14326052 125.68797409 68 124 C72.75560425 122.43681527 75.87811029 119.91777199 79.40625 116.42578125 C81 115 81 115 83 115 C82.15927279 122.36949947 76.25896284 127.28803623 70.7890625 131.83984375 C60.14123198 139.39326865 48.82338869 141.67788317 36 140 C22.42948008 136.73034381 14.0947989 128.93347273 6 118 C5.43023438 117.24074219 4.86046875 116.48148437 4.2734375 115.69921875 C3.85320312 115.13847656 3.43296875 114.57773438 3 114 C2.89176227 116.24893954 2.81430355 118.49937575 2.75 120.75 C2.70359375 122.00296875 2.6571875 123.2559375 2.609375 124.546875 C2.69775323 128.03468883 2.69775323 128.03468883 4.828125 130.328125 C6.50349209 131.61779607 8.24082718 132.82721812 10 134 C7.41705004 136.58294996 5.80600273 136.53976018 2.21484375 137.0703125 C1.04373047 137.24433594 -0.12738281 137.41835937 -1.33398438 137.59765625 C-2.56439453 137.77167969 -3.79480469 137.94570312 -5.0625 138.125 C-6.86750977 138.39763672 -6.86750977 138.39763672 -8.70898438 138.67578125 C-15.2112116 139.62039755 -21.43097572 140.21213211 -28 140 C-28.99 138.02 -29.98 136.04 -31 134 C-31.60328125 134.34933594 -32.2065625 134.69867188 -32.828125 135.05859375 C-33.62734375 135.51363281 -34.4265625 135.96867188 -35.25 136.4375 C-36.03890625 136.88996094 -36.8278125 137.34242188 -37.640625 137.80859375 C-44.54381085 141.29447402 -53.46940116 141.08313497 -60.859375 139.31640625 C-73.42999477 134.61218364 -80.27065189 125.8372117 -86 114 C-86.08132187 116.56314499 -86.14064175 119.12368418 -86.1875 121.6875 C-86.21263672 122.40873047 -86.23777344 123.12996094 -86.26367188 123.87304688 C-86.32664634 128.47018284 -85.87686397 131.36999475 -83 135 C-80.41556677 136.73490246 -80.41556677 136.73490246 -78 138 C-78 138.33 -78 138.66 -78 139 C-86.20595125 139.22408997 -94.41202089 139.42545871 -102.61919403 139.59840012 C-106.43074847 139.67941917 -110.24179901 139.76804899 -114.05273438 139.87451172 C-117.73535266 139.97710238 -121.41792365 140.05912631 -125.10133362 140.12732697 C-126.50160289 140.15678704 -127.90174075 140.19346754 -129.30162048 140.2377243 C-138.39429301 140.51931048 -144.76357468 140.32082246 -151.98828125 134.359375 C-152.42527344 133.82828125 -152.86226563 133.2971875 -153.3125 132.75 C-153.76238281 132.22921875 -154.21226562 131.7084375 -154.67578125 131.171875 C-158.23794393 125.32950789 -159.44615834 119.79001202 -159.34057617 113.0234375 C-159.34101425 112.27124435 -159.34145233 111.51905121 -159.34190369 110.74406433 C-159.33983364 108.2874343 -159.3165886 105.83150901 -159.29296875 103.375 C-159.28736642 101.66007866 -159.28309933 99.94515249 -159.28010559 98.23022461 C-159.26870694 93.73881538 -159.23928323 89.24770189 -159.20599365 84.75640869 C-159.17518482 80.16446939 -159.16157724 75.57248184 -159.14648438 70.98046875 C-159.11440826 61.98684996 -159.06327286 52.99344967 -159 44 C-161.97 44 -164.94 44 -168 44 C-168 43.01 -168 42.02 -168 41 C-166.51113281 40.79697266 -166.51113281 40.79697266 -164.9921875 40.58984375 C-151.93836714 38.60557249 -140.43162597 34.79014541 -131.453125 24.50390625 C-130.97359375 24.00761719 -130.4940625 23.51132813 -130 23 C-129.34 23 -128.68 23 -128 23 C-128 28.94 -128 34.88 -128 41 C-123.71 41 -119.42 41 -115 41 C-115.33 41.99 -115.66 42.98 -116 44 C-119.96 44 -123.92 44 -128 44 C-127.83483887 45.65265869 -127.66967773 47.30531738 -127.49951172 49.00805664 C-126.92663966 55.91490878 -126.91276097 62.78558787 -126.98596573 69.70925713 C-127.00836049 71.92531966 -127.02219232 74.14129242 -127.03366089 76.35743713 C-127.0669312 82.64816326 -127.10919489 88.93873711 -127.17138672 95.22924805 C-127.20906431 99.10099472 -127.23205745 102.97259694 -127.24569321 106.84449959 C-127.2537221 108.31131124 -127.26729501 109.77810385 -127.28662491 111.2448101 C-127.31315791 113.2902613 -127.32100033 115.33501309 -127.32470703 117.38061523 C-127.33438507 118.54133041 -127.34406311 119.70204559 -127.35403442 120.89793396 C-126.94686804 124.4655447 -126.30760032 126.2487443 -124 129 C-120.92438754 130.35980881 -120.92438754 130.35980881 -118 131 C-118.08436394 121.1597816 -118.17923198 111.31972599 -118.28752708 101.47974014 C-118.33748198 96.91067799 -118.38381212 92.34163886 -118.421875 87.77246094 C-118.45873796 83.36330177 -118.50510071 78.95433564 -118.55806351 74.54534149 C-118.57660208 72.86286555 -118.59171204 71.18034823 -118.60334396 69.49781036 C-118.62021567 67.14189366 -118.64925257 64.78641854 -118.68115234 62.43066406 C-118.68331253 61.73438904 -118.68547272 61.03811401 -118.68769836 60.32073975 C-118.74963912 56.7420893 -118.91825108 53.97878164 -121 51 C-122.65261839 49.97695052 -124.31791365 48.97383946 -126 48 C-126 47.34 -126 46.68 -126 46 C-121.85696045 45.28046981 -117.71268449 44.56868016 -113.56713867 43.86376953 C-112.15955528 43.62333628 -110.75231933 43.380859 -109.34545898 43.13623047 C-107.31323645 42.78323896 -105.27984241 42.43782606 -103.24609375 42.09375 C-102.02591553 41.88427734 -100.8057373 41.67480469 -99.54858398 41.45898438 C-95.96098692 40.99495393 -92.6118384 40.77983714 -89 41 C-86.28336207 43.71663793 -86.69246879 45.30194653 -86.5859375 49.1015625 C-86.54726563 50.31328125 -86.50859375 51.525 -86.46875 52.7734375 C-86.4378125 54.04445312 -86.406875 55.31546875 -86.375 56.625 C-86.33632813 57.90375 -86.29765625 59.1825 -86.2578125 60.5 C-86.16328951 63.66652017 -86.07773643 66.8330304 -86 70 C-85.5656665 69.10466553 -85.13133301 68.20933105 -84.68383789 67.28686523 C-78.29507705 54.32823695 -69.1626702 45.14034712 -55.625 39.625 C-47.07117757 38.15020303 -39.35392862 38.95746329 -31 41 C-30.9009086 36.94335053 -30.82842894 32.8871723 -30.78027344 28.82958984 C-30.76019358 27.4502332 -30.73292334 26.07096131 -30.69824219 24.69189453 C-30.64957183 22.70643021 -30.62913582 20.72033746 -30.609375 18.734375 C-30.58842773 17.54038086 -30.56748047 16.34638672 -30.54589844 15.11621094 C-31.09133245 11.37324333 -32.02512742 10.25767982 -35 8 C-35.99 7.67 -36.98 7.34 -38 7 C-37.67 6.01 -37.34 5.02 -37 4 C-32.52237431 3.32270451 -28.04269063 2.66009777 -23.5625 2 C-22.30244141 1.80921875 -21.04238281 1.6184375 -19.74414062 1.421875 C-6.36025742 -0.53503743 -6.36025742 -0.53503743 0 0 Z M38.3125 43.8125 C31.44808029 53.2742677 30 65.56982166 30 77 C39.57 77 49.14 77 59 77 C59 65.45240262 58.37816232 52.03797222 50.1875 43 C45.76598499 40.97873599 42.33822212 41.0974781 38.3125 43.8125 Z M-42.2421875 45.77734375 C-51.47024146 52.19596795 -55.36606716 62.89668307 -57.60522461 73.5168457 C-60.39794517 91.0831789 -58.29328493 110.1585194 -48 125 C-45.56695957 127.56912453 -45.56695957 127.56912453 -43 129 C-42.38125 129.4125 -41.7625 129.825 -41.125 130.25 C-38.03343214 131.3411416 -35.24700921 131.1803894 -32 131 C-31.01 130.505 -31.01 130.505 -30 130 C-30 102.28 -30 74.56 -30 46 C-36.5631641 43.76164224 -36.5631641 43.76164224 -42.2421875 45.77734375 Z M2 109 C3 112 3 112 3 112 Z " fill="#FEFEFE" transform="translate(537,58)"/>
<path d="M0 0 C6.45129176 4.20736419 9.23439243 9.64642563 11 17 C11.17314197 19.44220915 11.2529083 21.89223845 11.25537109 24.34057617 C11.25899155 25.03743027 11.262612 25.73428436 11.26634216 26.45225525 C11.27319025 27.9521422 11.27575029 29.45205382 11.27439499 30.9519558 C11.27342353 33.32713365 11.28644175 35.7018667 11.30337524 38.07698059 C11.34948025 44.82496818 11.37427363 51.57290498 11.38085938 58.32104492 C11.38587061 62.4595596 11.41008919 66.59760158 11.44618607 70.73595619 C11.45598272 72.30958533 11.45831671 73.88327946 11.45301437 75.45693016 C11.44595187 77.654339 11.4632027 79.85033245 11.48583984 82.04760742 C11.48868988 83.29668381 11.49153992 84.54576019 11.49447632 85.83268738 C12.09094429 89.56980314 13.05555616 90.70960747 16 93 C16.66 93.33 17.32 93.66 18 94 C18 94.66 18 95.32 18 96 C2.16 96 -13.68 96 -30 96 C-29 94 -29 94 -26.0625 92.75 C-22.80620461 91.29500658 -22.80620461 91.29500658 -21.82455444 88.28869629 C-20.982725 84.93109948 -20.74862856 82.0869435 -20.74462891 78.63085938 C-20.73766998 77.38937134 -20.73071106 76.1478833 -20.72354126 74.86877441 C-20.7242223 74.21302933 -20.72490334 73.55728424 -20.72560501 72.88166809 C-20.72657712 70.81264132 -20.71354947 68.74412435 -20.69662476 66.6751709 C-20.65055091 60.79667022 -20.62574606 54.91822609 -20.61914062 49.03955078 C-20.61411399 45.43382634 -20.58981333 41.82864046 -20.55381393 38.22309875 C-20.54404871 36.85487609 -20.54166608 35.48657908 -20.54698563 34.11833191 C-20.59568332 20.98160532 -20.59568332 20.98160532 -16 16 C-15.49855469 15.3709375 -14.99710937 14.741875 -14.48046875 14.09375 C-14.05378906 13.5678125 -13.62710938 13.041875 -13.1875 12.5 C-11.14793175 9.70803005 -10.98719367 9.23478278 -11.1875 5.5625 C-11.5896875 4.2940625 -11.5896875 4.2940625 -12 3 C-22.60053959 -0.5335132 -30.74251566 1.56921073 -41 5 C-40.91574749 16.04820109 -40.82092353 27.09625542 -40.71247292 38.14424706 C-40.66245388 43.27387139 -40.6161245 48.40347456 -40.578125 53.53320312 C-40.54134284 58.48050156 -40.49500251 63.4276253 -40.44193649 68.37477493 C-40.42335484 70.26544771 -40.40826093 72.15615798 -40.39665604 74.04688644 C-40.37985784 76.68817924 -40.3508391 79.32906864 -40.31884766 81.97021484 C-40.31668747 82.75783707 -40.31452728 83.54545929 -40.31230164 84.35694885 C-40.39824861 88.64112265 -40.39824861 88.64112265 -38 92 C-35.93125966 92.6425235 -35.93125966 92.6425235 -34 93 C-34 93.99 -34 94.98 -34 96 C-61.06 96 -88.12 96 -116 96 C-113 93 -113 93 -110.875 91.6875 C-108.24828137 89.32345323 -108.41113107 87.4719536 -108 84 C-107.91204542 81.83297963 -107.87215403 79.66367707 -107.87060547 77.49487305 C-107.86745331 76.22302658 -107.86430115 74.95118011 -107.86105347 73.64079285 C-107.86284412 72.26443446 -107.86489528 70.88807639 -107.8671875 69.51171875 C-107.86651286 68.08453861 -107.86554149 66.65735858 -107.86428833 65.23017883 C-107.86281749 62.24369204 -107.86494522 59.25723524 -107.86962891 56.27075195 C-107.87531025 52.46486092 -107.87205342 48.65904068 -107.86605644 44.85315228 C-107.86242094 41.90612772 -107.86360334 38.95911958 -107.86618423 36.0120945 C-107.86684607 34.61003422 -107.86605142 33.2079724 -107.86370468 31.80591393 C-107.05611013 19.04429023 -107.05611013 19.04429023 -110.875 7.5 C-113.01931277 5.8331503 -113.01931277 5.8331503 -116 5 C-116 4.34 -116 3.68 -116 3 C-111.71446631 2.28070678 -107.4277733 1.56890262 -103.13989258 0.86376953 C-101.68382919 0.62327131 -100.22809152 0.38079185 -98.77270508 0.13623047 C-96.67092762 -0.21658589 -94.56805041 -0.56206875 -92.46484375 -0.90625 C-90.57173462 -1.22045898 -90.57173462 -1.22045898 -88.64038086 -1.54101562 C-85.05026942 -1.99366196 -81.61413196 -2.08144523 -78 -2 C-77.34 -0.68 -76.68 0.64 -76 2 C-75.24904053 1.87882812 -74.49808105 1.75765625 -73.72436523 1.6328125 C-70.29628423 1.08292367 -66.86693255 0.54139309 -63.4375 0 C-61.66536133 -0.28617187 -61.66536133 -0.28617187 -59.85742188 -0.578125 C-44.71380295 -2.95359464 -44.71380295 -2.95359464 -40.9921875 -0.8828125 C-37.77145047 0.54441607 -35.39182004 -0.81829077 -32.125 -1.875 C-21.03543618 -5.14630585 -10.39117605 -5.73988773 0 0 Z M-76 7 C-76.04629837 17.50925741 -76.08185648 28.01849063 -76.10362434 38.52782917 C-76.11407073 43.40750539 -76.12824552 48.28711193 -76.15087891 53.16674805 C-76.17257681 57.87404759 -76.18456219 62.58128003 -76.18975449 67.28862572 C-76.19345574 69.08640792 -76.20068316 70.88418637 -76.21146011 72.68194008 C-76.2259345 75.19600038 -76.22797965 77.70978183 -76.22705078 80.22387695 C-76.23424133 80.97050095 -76.24143188 81.71712494 -76.24884033 82.4863739 C-76.23388917 86.21512838 -76.12473406 87.8128989 -74 91 C-72.02469468 86.86305543 -71.74220147 83.49665868 -71.7253418 78.93408203 C-71.72023087 78.24233887 -71.71511993 77.5505957 -71.70985413 76.83789062 C-71.69600421 74.56110881 -71.69691156 72.28463133 -71.69921875 70.0078125 C-71.69532892 68.41746916 -71.69099366 66.82712686 -71.68623352 65.23678589 C-71.67878094 61.90635814 -71.67905532 58.57603641 -71.68432617 55.24560547 C-71.69011566 50.98982155 -71.67319798 46.73447357 -71.6499815 42.47876167 C-71.635207 39.19466641 -71.63437756 35.91067519 -71.63749123 32.62655258 C-71.63697975 31.05815646 -71.63177479 29.48975425 -71.62167931 27.92139053 C-71.6092613 25.722213 -71.61613799 23.52387244 -71.62768555 21.32470703 C-71.62705612 20.07626007 -71.6264267 18.82781311 -71.6257782 17.54153442 C-72.06102316 13.42249319 -73.20157364 10.70493038 -75 7 C-75.33 7 -75.66 7 -76 7 Z " fill="#C0FC74" transform="translate(365,103)"/>
<path d="M0 0 C1.85365432 0.91770228 3.70782272 1.8343669 5.5625 2.75 C7.0426892 3.49797993 8.52223801 4.24723607 10 5 C10.515625 4.071875 11.03125 3.14375 11.5625 2.1875 C14.70283823 -2.50089229 19.1808139 -3.50385834 24.4375 -4.9375 C28.98686072 -5.01731335 32.356161 -3.73732296 36 -1 C36.495 0.485 36.495 0.485 37 2 C37.66 2 38.32 2 39 2 C41.48139499 7.55832478 43.1429661 12.06836456 41 18 C38.7944259 21.54144233 36.26392384 24.1924931 32.75 26.4375 C28.51049909 27.30467064 24.31040019 27.15065476 20 27 C19.76925781 27.53109375 19.53851563 28.0621875 19.30078125 28.609375 C17.18810777 33.18544245 15.36183544 36.20395164 11 39 C5.41759548 40.86080151 -0.05131969 40.93825348 -5.375 38.375 C-9.93944253 34.24526629 -12.6618015 30.24630262 -13.16796875 24.078125 C-12.7549979 18.96881127 -9.62490332 14.88527971 -6.75 10.8125 C-4.87133867 8.15182654 -4.87133867 8.15182654 -4.4375 5.3125 C-4.79794255 2.76971476 -4.79794255 2.76971476 -7.3125 1.25 C-13.89707517 -1.8125931 -21.27723092 -1.98649946 -28.375 -0.50390625 C-31.28194863 0.56803106 -32.75885292 1.50430877 -34.125 4.3125 C-33.96015946 7.8565716 -32.8643663 10.00369702 -31 13 C-30.01 13.66 -29.02 14.32 -28 15 C-24.21932854 20.97953246 -23.43670774 26.69968482 -23.609375 33.62890625 C-23.61503479 34.50401352 -23.62069458 35.37912079 -23.62652588 36.28074646 C-23.64869565 39.04191706 -23.69885229 41.80172993 -23.75 44.5625 C-23.7700902 46.4485488 -23.78833653 48.3346182 -23.8046875 50.22070312 C-23.84849632 54.81431534 -23.91738509 59.4069285 -24 64 C-22.71349593 63.5544542 -21.43024815 63.09949889 -20.1484375 62.640625 C-19.43349121 62.38829102 -18.71854492 62.13595703 -17.98193359 61.87597656 C-14.95077748 60.53626381 -13.66851564 58.82364185 -12 56 C-11.15818038 53.67290094 -10.56883765 51.41756001 -10 49 C-9.01 49.33 -8.02 49.66 -7 50 C-7 60.56 -7 71.12 -7 82 C-7.99 82.33 -8.98 82.66 -10 83 C-10.15855469 82.32453125 -10.31710938 81.6490625 -10.48046875 80.953125 C-11.95552712 75.24265017 -11.95552712 75.24265017 -15.3125 70.5 C-18.1441337 68.91955328 -20.91859647 67.98604913 -24 67 C-23.89248724 74.90168858 -23.77985156 82.80328038 -23.66066074 90.70480061 C-23.60547799 94.37372668 -23.55206546 98.04266079 -23.50268555 101.71166992 C-23.45497338 105.25193892 -23.40262815 108.79211177 -23.34705925 112.33226585 C-23.31673705 114.34136299 -23.29122315 116.35053081 -23.26576233 118.35969543 C-23.2358445 120.19125435 -23.2358445 120.19125435 -23.20532227 122.05981445 C-23.18977798 123.13681107 -23.1742337 124.21380768 -23.15821838 125.32344055 C-23.11021253 128.1021879 -23.11021253 128.1021879 -22 131 C-18.99152582 132.22520264 -18.99152582 132.22520264 -16 133 C-16 133.66 -16 134.32 -16 135 C-31.51 135 -47.02 135 -63 135 C-63 134.34 -63 133.68 -63 133 C-61.01310269 131.64721885 -59.01254782 130.31431695 -57 129 C-55.82820761 126.65641521 -55.87772775 125.29308487 -55.88215637 122.68199158 C-55.88103851 121.7751059 -55.87992065 120.86822021 -55.87876892 119.93385315 C-55.88243973 118.93595261 -55.88611053 117.93805206 -55.88989258 116.90991211 C-55.88934971 114.73510232 -55.88876269 112.56029255 -55.88813782 110.38548279 C-55.88956598 109.22777311 -55.89099415 108.07006344 -55.89246559 106.87727165 C-55.89597725 100.7573288 -55.87018638 94.63747879 -55.84960938 88.51757812 C-55.82528739 80.72461291 -55.80954757 72.93191383 -55.82495117 65.13891602 C-55.83662522 58.84697432 -55.8191773 52.55569519 -55.78250694 46.26385689 C-55.77389961 43.86818427 -55.77595938 41.47244811 -55.789011 39.07679558 C-55.80594683 35.71574759 -55.78565711 32.35677687 -55.75708008 28.99584961 C-55.77087204 28.01211868 -55.784664 27.02838776 -55.7988739 26.0148468 C-55.6511465 17.01911797 -51.56292352 11.77368479 -45.75 5.25 C-33.267213 -6.54842368 -14.79774159 -7.82350164 0 0 Z " fill="#C0FD72" transform="translate(248,64)"/>
<path d="M0 0 C4.88351295 2.30856976 7.51973231 5.22318815 10 10 C11.28220538 14.31207427 11.18836887 17.34624922 9.9375 21.6875 C7.04605765 26.63093369 3.64320923 29.7067888 -1.8125 31.5 C-6.66951747 32.46768164 -10.6936104 31.32577912 -15 29 C-18.77203213 25.54899188 -20.91491795 22.12416185 -21.90625 17.1484375 C-22.11419377 12.38305952 -20.72410782 7.92532995 -17.52734375 4.35546875 C-11.8955449 -0.44608949 -7.19476506 -0.72252945 0 0 Z " fill="#FDFDFE" transform="translate(440,58)"/>
<path d="M0 0 C2.029668 3.044502 2.24856301 3.60276328 2.22705078 7.01245117 C2.22689972 7.81305466 2.22674866 8.61365814 2.22659302 9.43852234 C2.21627045 10.29798965 2.20594788 11.15745697 2.1953125 12.04296875 C2.1924826 12.9265657 2.18965271 13.81016266 2.18673706 14.72053528 C2.17554097 17.54299454 2.15043751 20.36513662 2.125 23.1875 C2.11496946 25.10090688 2.10584374 27.01431873 2.09765625 28.92773438 C2.07560351 33.61861182 2.04107762 38.30925213 2 43 C3.28650407 42.5544542 4.56975185 42.09949889 5.8515625 41.640625 C6.56650879 41.38829102 7.28145508 41.13595703 8.01806641 40.87597656 C11.04922252 39.53626381 12.33148436 37.82364185 14 35 C14.84181962 32.67290094 15.43116235 30.41756001 16 28 C16.99 28.33 17.98 28.66 19 29 C19 39.56 19 50.12 19 61 C18.01 61.33 17.02 61.66 16 62 C15.84144531 61.32453125 15.68289062 60.6490625 15.51953125 59.953125 C14.04447288 54.24265017 14.04447288 54.24265017 10.6875 49.5 C7.8558663 47.91955328 5.08140353 46.98604913 2 46 C2.10751276 53.90168858 2.22014844 61.80328038 2.33933926 69.70480061 C2.39452201 73.37372668 2.44793454 77.04266079 2.49731445 80.71166992 C2.54502662 84.25193892 2.59737185 87.79211177 2.65294075 91.33226585 C2.68326295 93.34136299 2.70877685 95.35053081 2.73423767 97.35969543 C2.7641555 99.19125435 2.7641555 99.19125435 2.79467773 101.05981445 C2.81799416 102.67530937 2.81799416 102.67530937 2.84178162 104.32344055 C2.88978747 107.1021879 2.88978747 107.1021879 4 110 C7.00847418 111.22520264 7.00847418 111.22520264 10 112 C10 112.66 10 113.32 10 114 C-5.51 114 -21.02 114 -37 114 C-37 113.34 -37 112.68 -37 112 C-35.01310269 110.64721885 -33.01254782 109.31431695 -31 108 C-29.58869497 105.17738993 -29.83605673 102.77918516 -29.79467773 99.62255859 C-29.78477814 98.96877731 -29.77487854 98.31499603 -29.76467896 97.6414032 C-29.73305289 95.47711833 -29.70830228 93.3128115 -29.68359375 91.1484375 C-29.66302517 89.64913355 -29.64202872 88.14983541 -29.62062073 86.65054321 C-29.56539012 82.70174869 -29.51598524 78.75290174 -29.46777344 74.80401611 C-29.41756561 70.77554654 -29.3618758 66.74715322 -29.30664062 62.71875 C-29.19904697 54.81256444 -29.09760471 46.90631515 -29 39 C-28.34 39 -27.68 39 -27 39 C-27 59.46 -27 79.92 -27 101 C-26.34 101.33 -25.68 101.66 -25 102 C-25.66 102 -26.32 102 -27 102 C-26.938125 102.9075 -26.87625 103.815 -26.8125 104.75 C-27 108 -27 108 -30 112 C-19.11 111.67 -8.22 111.34 3 111 C2.34 110.01 1.68 109.02 1 108 C0.7215271 105.50563049 0.7215271 105.50563049 0.68115234 102.48266602 C0.66128769 101.34213272 0.64142303 100.20159943 0.62095642 99.02650452 C0.60940018 97.78154709 0.59784393 96.53658966 0.5859375 95.25390625 C0.5568203 93.30556129 0.5568203 93.30556129 0.52711487 91.31785583 C0.47509375 87.79496674 0.43563116 84.27204007 0.39890671 80.7489624 C0.36710992 77.84088785 0.32809913 74.93292836 0.28913784 72.0249424 C-0.03060817 48.01713961 -0.1260198 24.00967915 0 0 Z " fill="#C2EE91" transform="translate(222,85)"/>
<path d="M0 0 C6.44900628 4.20587366 9.23975173 9.64659132 11 17 C11.16573161 19.46360951 11.23572974 21.93489024 11.22705078 24.40405273 C11.22734283 25.107332 11.22763489 25.81061127 11.22793579 26.53520203 C11.22655446 28.83479623 11.21105057 31.13405691 11.1953125 33.43359375 C11.1915781 35.03784508 11.18873314 36.64209871 11.18673706 38.24635315 C11.17913422 42.45000608 11.15951484 46.65351881 11.1373291 50.8571167 C11.11679819 55.15407414 11.1077199 59.45105443 11.09765625 63.74804688 C11.0762655 72.16542862 11.04217043 80.58269682 11 89 C10.67 89 10.34 89 10 89 C9.67 72.83 9.34 56.66 9 40 C8.67 40 8.34 40 8 40 C7.970271 38.90328979 7.970271 38.90328979 7.93994141 37.78442383 C7.84447086 34.46009731 7.73488034 31.13638014 7.625 27.8125 C7.5940625 26.66201172 7.563125 25.51152344 7.53125 24.32617188 C7.49257813 23.21435547 7.45390625 22.10253906 7.4140625 20.95703125 C7.3826416 19.93585205 7.3512207 18.91467285 7.31884766 17.86254883 C6.9904966 14.91468039 6.17073396 12.70735897 5 10 C5 9.34 5 8.68 5 8 C4.01 7.505 4.01 7.505 3 7 C3 6.34 3 5.68 3 5 C2.38125 5.185625 1.7625 5.37125 1.125 5.5625 C-1 6 -1 6 -3 5 C-3.33 5.66 -3.66 6.32 -4 7 C-4.66 7 -5.32 7 -6 7 C-6 6.01 -6 5.02 -6 4 C-6.66 4 -7.32 4 -8 4 C-8.33 5.65 -8.66 7.3 -9 9 C-9.66 8.67 -10.32 8.34 -11 8 C-11.625 5.4375 -11.625 5.4375 -12 3 C-19.37571429 0.54142857 -25.58420794 0.40791747 -33.03515625 2.48828125 C-35.9971812 3.25970326 -38.96513972 3.62064246 -42 4 C-42.33 2.68 -42.66 1.36 -43 0 C-46.96 0 -50.92 0 -55 0 C-55 0.66 -55 1.32 -55 2 C-59.95 2 -64.9 2 -70 2 C-70 1.67 -70 1.34 -70 1 C-66.813827 0.49129467 -63.62588525 -0.00536581 -60.4375 -0.5 C-59.54224609 -0.64308594 -58.64699219 -0.78617187 -57.72460938 -0.93359375 C-44.68798396 -2.93922843 -44.68798396 -2.93922843 -40.9921875 -0.8828125 C-37.77145047 0.54441607 -35.39182004 -0.81829077 -32.125 -1.875 C-21.03543618 -5.14630585 -10.39117605 -5.73988773 0 0 Z " fill="#C7F693" transform="translate(365,103)"/>
<path d="M0 0 C0.66 0 1.32 0 2 0 C2 20.46 2 40.92 2 62 C2.66 62.33 3.32 62.66 4 63 C3.34 63 2.68 63 2 63 C2.061875 63.9075 2.12375 64.815 2.1875 65.75 C1.97898296 69.36429542 1.23586253 70.30053343 -1 73 C0.03406982 72.96447021 1.06813965 72.92894043 2.13354492 72.89233398 C5.98183628 72.76164691 9.83034103 72.63860022 13.67895508 72.51782227 C15.34243427 72.46455855 17.00584908 72.4092422 18.66918945 72.35180664 C21.06447473 72.26945752 23.45989689 72.19457101 25.85546875 72.12109375 C26.5952446 72.09405869 27.33502045 72.06702362 28.09721375 72.03916931 C31.88617671 71.93044622 35.31939877 72.06168363 39 73 C39 73.66 39 74.32 39 75 C23.49 75 7.98 75 -8 75 C-8 74.34 -8 73.68 -8 73 C-6.01310269 71.64721885 -4.01254782 70.31431695 -2 69 C-0.58869497 66.17738993 -0.83605673 63.77918516 -0.79467773 60.62255859 C-0.78477814 59.96877731 -0.77487854 59.31499603 -0.76467896 58.6414032 C-0.73305289 56.47711833 -0.70830228 54.3128115 -0.68359375 52.1484375 C-0.66302517 50.64913355 -0.64202872 49.14983541 -0.62062073 47.65054321 C-0.56539012 43.70174869 -0.51598524 39.75290174 -0.46777344 35.80401611 C-0.41756561 31.77554654 -0.3618758 27.74715322 -0.30664062 23.71875 C-0.19904697 15.81256444 -0.09760471 7.90631515 0 0 Z " fill="#C6F28F" transform="translate(193,124)"/>
<path d="M0 0 C0.66 0.66 1.32 1.32 2 2 C1.98446738 4.82659403 1.85283458 7.54863884 1.63110352 10.3605957 C0.95412413 20.66296557 0.87107722 30.90947762 0.90234375 41.23046875 C0.90421574 43.08661358 0.90563593 44.94275891 0.90663147 46.79890442 C0.9103953 51.61389605 0.9201708 56.42885606 0.93133545 61.24383545 C0.94168383 66.18533908 0.94615744 71.12684796 0.95117188 76.06835938 C0.96180055 85.71225325 0.97880023 95.35612396 1 105 C0.34 105 -0.32 105 -1 105 C-1.33 77.61 -1.66 50.22 -2 22 C-2.99 21.67 -3.98 21.34 -5 21 C-5 20.01 -5 19.02 -5 18 C-4.01 17.34 -3.02 16.68 -2 16 C-1.64191146 13.41413113 -1.44242866 11.0310952 -1.375 8.4375 C-1.10414669 1.10414669 -1.10414669 1.10414669 0 0 Z " fill="#F4F2FD" transform="translate(508,82)"/>
<path d="M0 0 C0.33 0 0.66 0 1 0 C1.04898438 0.84304687 1.09796875 1.68609375 1.1484375 2.5546875 C1.26058594 4.19824219 1.26058594 4.19824219 1.375 5.875 C1.47941406 7.51082031 1.47941406 7.51082031 1.5859375 9.1796875 C1.73253491 12.13046474 1.73253491 12.13046474 4 14 C6.06874034 14.6425235 6.06874034 14.6425235 8 15 C8 15.99 8 16.98 8 18 C-19.06 18 -46.12 18 -74 18 C-71.37886292 15.37886292 -69.17772443 13.80357333 -66 12 C-66.33 13.32 -66.66 14.64 -67 16 C-32.845 15.505 -32.845 15.505 2 15 C1.01 14.01 1.01 14.01 0 13 C-0.1953125 9.9609375 -0.1953125 9.9609375 -0.125 6.375 C-0.10695313 5.18648437 -0.08890625 3.99796875 -0.0703125 2.7734375 C-0.04710937 1.85820312 -0.02390625 0.94296875 0 0 Z " fill="#C7F196" transform="translate(323,181)"/>
<path d="M0 0 C0.66 0.33 1.32 0.66 2 1 C2.01030746 1.82019119 2.02061493 2.64038239 2.03123474 3.48542786 C2.12916489 11.21054144 2.23167296 18.93557421 2.33933926 26.66055775 C2.39453115 30.63215685 2.44794518 34.60376337 2.49731445 38.57543945 C2.54501308 42.40747682 2.59735789 46.23942499 2.65294075 50.07135582 C2.67333938 51.53417429 2.69205658 52.9970172 2.70907402 54.45987892 C2.73317327 56.50695255 2.76322008 58.55385816 2.79467773 60.60083008 C2.81022202 61.76665115 2.8257663 62.93247223 2.84178162 64.13362122 C2.87774629 67.07234101 2.87774629 67.07234101 4 70 C2.68 69.67 1.36 69.34 0 69 C-0.15369908 60.2989212 -0.30188069 51.59777123 -0.4429636 42.89647865 C-0.50864428 38.85638906 -0.57624552 34.81635042 -0.64819336 30.77636719 C-0.71752025 26.87962593 -0.78185785 22.98283167 -0.84269524 19.08594894 C-0.86682338 17.59713104 -0.89276784 16.10834145 -0.92053413 14.61958694 C-0.95903375 12.53891684 -0.99115044 10.45824086 -1.02172852 8.37744141 C-1.04171402 7.19163483 -1.06169952 6.00582825 -1.08229065 4.78408813 C-1 2 -1 2 0 0 Z " fill="#F3F0FD" transform="translate(537,60)"/>
<path d="M0 0 C0.99 0.33 1.98 0.66 3 1 C3 11.56 3 22.12 3 33 C1.515 33.495 1.515 33.495 0 34 C-0.33 31.36 -0.66 28.72 -1 26 C-0.67 26 -0.34 26 0 26 C0 22.37 0 18.74 0 15 C-1.32 14.34 -2.64 13.68 -4 13 C-4.66 12.67 -5.32 12.34 -6 12 C-5.38125 11.319375 -4.7625 10.63875 -4.125 9.9375 C-1.6680932 6.54118766 -0.95054395 4.03981179 0 0 Z " fill="#BDEB7A" transform="translate(238,113)"/>
<path d="M0 0 C0.66 1.32 1.32 2.64 2 4 C3.98 4 5.96 4 8 4 C7.67 4.99 7.34 5.98 7 7 C6.01 7 5.02 7 4 7 C4 6.34 4 5.68 4 5 C2.68 5.33 1.36 5.66 0 6 C0 4.68 0 3.36 0 2 C-12.80738167 3.21828256 -12.80738167 3.21828256 -25.5625 4.875 C-26.80193359 5.05675781 -26.80193359 5.05675781 -28.06640625 5.2421875 C-30.19573841 5.85336805 -30.19573841 5.85336805 -31.27734375 8.0703125 C-31.51582031 8.70710938 -31.75429687 9.34390625 -32 10 C-33.98 9.01 -35.96 8.02 -38 7 C-38 6.34 -38 5.68 -38 5 C-33.71446631 4.28070678 -29.4277733 3.56890262 -25.13989258 2.86376953 C-23.68382919 2.62327131 -22.22809152 2.38079185 -20.77270508 2.13623047 C-18.67092762 1.78341411 -16.56805041 1.43793125 -14.46484375 1.09375 C-12.57173462 0.77954102 -12.57173462 0.77954102 -10.64038086 0.45898438 C-7.05026942 0.00633804 -3.61413196 -0.08144523 0 0 Z M2 7 C2.66 7 3.32 7 4 7 C5.85776765 10.13498292 6.20140476 12.37471432 6 16 C4.47700477 13.06279492 3.19899698 10.0831351 2 7 Z " fill="#C3E990" transform="translate(287,101)"/>
<path d="M0 0 C0.66 0.33 1.32 0.66 2 1 C0.8553125 2.36125 0.8553125 2.36125 -0.3125 3.75 C-1.856057 5.59005948 -3.29436301 7.41428868 -4.6875 9.375 C-5.120625 9.91125 -5.55375 10.4475 -6 11 C-6.66 11 -7.32 11 -8 11 C-8 11.66 -8 12.32 -8 13 C-8.66 13 -9.32 13 -10 13 C-10.01981934 13.83249268 -10.03963867 14.66498535 -10.06005859 15.52270508 C-10.13820742 18.614765 -10.22490206 21.70643383 -10.31738281 24.7980957 C-10.37444092 26.7929536 -10.42164442 28.7880854 -10.46875 30.78320312 C-10.50742188 32.03681641 -10.54609375 33.29042969 -10.5859375 34.58203125 C-10.6173584 35.73936768 -10.6487793 36.8967041 -10.68115234 38.08911133 C-11 41 -11 41 -13 44 C-13.1756692 39.52133633 -13.28131911 35.0435693 -13.375 30.5625 C-13.45041016 28.67241211 -13.45041016 28.67241211 -13.52734375 26.74414062 C-13.65847639 18.37350699 -12.63441554 13.28980458 -7 7 C-6.30132812 6.20464844 -5.60265625 5.40929687 -4.8828125 4.58984375 C-4.01269531 3.77193359 -4.01269531 3.77193359 -3.125 2.9375 C-2.52945313 2.36902344 -1.93390625 1.80054687 -1.3203125 1.21484375 C-0.66675781 0.61349609 -0.66675781 0.61349609 0 0 Z " fill="#CDF498" transform="translate(206,66)"/>
<path d="M0 0 C1.91423658 0.81210037 3.52072017 1.52072017 5 3 C5.07244053 5.01964199 5.08377188 7.04167124 5.0625 9.0625 C5.05347656 10.16722656 5.04445312 11.27195313 5.03515625 12.41015625 C5.02355469 13.26480469 5.01195312 14.11945313 5 15 C1.26955235 13.75651745 0.20459674 12.19286425 -2 9 C-2 8.01 -2 7.02 -2 6 C-3.32 6 -4.64 6 -6 6 C-6 5.34 -6 4.68 -6 4 C-5.01 4 -4.02 4 -3 4 C-2.67 3.01 -2.34 2.02 -2 1 C-1.34 0.67 -0.68 0.34 0 0 Z " fill="#C5F980" transform="translate(234,125)"/>
<path d="M0 0 C4.7769834 2.32024908 7.35254203 5.51968651 10 10 C11.11984119 13.35952356 11.028066 15.66910457 10.87890625 19.19921875 C10.83056641 20.40771484 10.78222656 21.61621094 10.73242188 22.86132812 C10.67634766 24.12396484 10.62027344 25.38660156 10.5625 26.6875 C10.51029297 27.96173828 10.45808594 29.23597656 10.40429688 30.54882812 C10.27449555 33.69946039 10.1395244 36.84978577 10 40 C9.67 40 9.34 40 9 40 C8.98018066 39.26885986 8.96036133 38.53771973 8.93994141 37.78442383 C8.84447086 34.46009731 8.73488034 31.13638014 8.625 27.8125 C8.5940625 26.66201172 8.563125 25.51152344 8.53125 24.32617188 C8.49257813 23.21435547 8.45390625 22.10253906 8.4140625 20.95703125 C8.3826416 19.93585205 8.3512207 18.91467285 8.31884766 17.86254883 C7.9904966 14.91468039 7.17073396 12.70735897 6 10 C6 9.34 6 8.68 6 8 C5.34 7.67 4.68 7.34 4 7 C3.67 6.01 3.34 5.02 3 4 C2.01 3.34 1.02 2.68 0 2 C0 1.34 0 0.68 0 0 Z " fill="#C8F38E" transform="translate(364,103)"/>
<path d="M0 0 C-1.32 0.33 -2.64 0.66 -4 1 C-4 0.34 -4 -0.32 -4 -1 C-12.08162707 -1.61665522 -12.08162707 -1.61665522 -19 2 C-19.66 3.03125 -20.32 4.0625 -21 5.125 C-23 8 -23 8 -25.75 8.875 C-26.4925 8.91625 -27.235 8.9575 -28 9 C-28 8.34 -28 7.68 -28 7 C-29.32 7 -30.64 7 -32 7 C-31.67 6.01 -31.34 5.02 -31 4 C-28.525 4.99 -28.525 4.99 -26 6 C-25.484375 5.071875 -24.96875 4.14375 -24.4375 3.1875 C-21.41519586 -1.34061645 -17.11849902 -2.3091851 -12.125 -3.9375 C-7.51262715 -4.02974746 -4.03710296 -2.0903222 0 0 Z " fill="#C8EF90" transform="translate(284,63)"/>
<path d="M0 0 C-3.48497008 1.09116781 -6.61588963 1.03653381 -10.25 0.9375 C-15.57713502 0.8834479 -19.93183562 1.40998765 -25 3 C-25 2.01 -25 1.02 -25 0 C-16.96774873 -2.93862851 -7.72804902 -4.83003064 0 0 Z " fill="#B9D48A" transform="translate(239,62)"/>
<path d="M0 0 C1.32 0.66 2.64 1.32 4 2 C3.773125 2.86625 3.54625 3.7325 3.3125 4.625 C2.93094372 8.74580783 3.80178951 10.54566923 6 14 C6.99 14.66 7.98 15.32 9 16 C10.1875 19.125 10.1875 19.125 11 22 C10.236875 21.319375 9.47375 20.63875 8.6875 19.9375 C7.800625 19.298125 6.91375 18.65875 6 18 C5.01 18.33 4.02 18.66 3 19 C2.67 15.7 2.34 12.4 2 9 C1.34 9 0.68 9 0 9 C0.0928125 7.824375 0.0928125 7.824375 0.1875 6.625 C0.125625 5.75875 0.06375 4.8925 0 4 C-0.99 3.34 -1.98 2.68 -3 2 C-2.01 1.34 -1.02 0.68 0 0 Z " fill="#CAF390" transform="translate(211,63)"/>
<path d="M0 0 C0 0.66 0 1.32 0 2 C14.19 1.67 28.38 1.34 43 1 C43 1.66 43 2.32 43 3 C27.49 3 11.98 3 -4 3 C-4 2.34 -4 1.68 -4 1 C-2 0 -2 0 0 0 Z " fill="#CBECA9" transform="translate(189,196)"/>
<path d="M0 0 C2 1.3125 2 1.3125 4 3 C4 3.99 4 4.98 4 6 C-9.2 6 -22.4 6 -36 6 C-35.34 4.68 -34.68 3.36 -34 2 C-33.67 2.66 -33.34 3.32 -33 4 C-21.78 4.33 -10.56 4.66 1 5 C1 4.34 1 3.68 1 3 C0.34 2.67 -0.32 2.34 -1 2 C-0.67 1.34 -0.34 0.68 0 0 Z " fill="#C8F788" transform="translate(376,192)"/>
<path d="M0 0 C0.66 0 1.32 0 2 0 C2.12375 0.969375 2.2475 1.93875 2.375 2.9375 C2.684375 4.4534375 2.684375 4.4534375 3 6 C3.66 6.33 4.32 6.66 5 7 C5 8.65 5 10.3 5 12 C4.01 12.495 4.01 12.495 3 13 C2.61004898 14.86492402 2.61004898 14.86492402 2.5 17 C2.34375 19.1875 2.34375 19.1875 2 21 C1.34 21.33 0.68 21.66 0 22 C0 14.74 0 7.48 0 0 Z M2 8 C3 11 3 11 3 11 Z " fill="#F4F3F9" transform="translate(537,159)"/>
<path d="M0 0 C0.99 0.33 1.98 0.66 3 1 C3 11.56 3 22.12 3 33 C1.515 33.495 1.515 33.495 0 34 C-0.33 31.36 -0.66 28.72 -1 26 C-0.34 25.67 0.32 25.34 1 25 C1.33 17.41 1.66 9.82 2 2 C1.34 2 0.68 2 0 2 C0 1.34 0 0.68 0 0 Z " fill="#BED8AA" transform="translate(238,113)"/>
<path d="M0 0 C5.77378925 0.4811491 9.95859836 2.18467181 15 5 C14.01 6.485 14.01 6.485 13 8 C13 7.34 13 6.68 13 6 C12.01 6 11.02 6 10 6 C10 8.64 10 11.28 10 14 C9.34 14 8.68 14 8 14 C8.1546875 12.39125 8.1546875 12.39125 8.3125 10.75 C8.40484902 6.90146887 8.40484902 6.90146887 5.6875 4.75 C4.800625 4.1725 3.91375 3.595 3 3 C1.9826127 2.01769502 0.97403883 1.02530403 0 0 Z " fill="#C8F38C" transform="translate(235,60)"/>
<path d="M0 0 C2.97 0.495 2.97 0.495 6 1 C6 1.66 6 2.32 6 3 C7.65 2.67 9.3 2.34 11 2 C10.67 3.65 10.34 5.3 10 7 C12.31 7 14.62 7 17 7 C17 7.33 17 7.66 17 8 C12.22996598 8.38160272 8.90534008 8.4609004 4.5625 6.25 C2.21999536 4.19316666 1.03478033 2.89738492 0 0 Z " fill="#C1EF81" transform="translate(238,96)"/>
<path d="M0 0 C4.95 0 9.9 0 15 0 C11.68629 2.20914 10.6553979 2.22481553 6.8125 2.125 C5.91144531 2.10695313 5.01039063 2.08890625 4.08203125 2.0703125 C3.39496094 2.04710938 2.70789063 2.02390625 2 2 C0.68 4.64 -0.64 7.28 -2 10 C-2.66 8.68 -3.32 7.36 -4 6 C-3.34 5.67 -2.68 5.34 -2 5 C-1.34 3.35 -0.68 1.7 0 0 Z " fill="#C7EE90" transform="translate(266,89)"/>
<path d="M0 0 C0.59732819 2.76264289 1 5.16032769 1 8 C-0.66666667 8 -2.33333333 8 -4 8 C-4 7.34 -4 6.68 -4 6 C-5.32 6 -6.64 6 -8 6 C-8 5.34 -8 4.68 -8 4 C-7.01 4 -6.02 4 -5 4 C-4.67 3.01 -4.34 2.02 -4 1 C-2 0 -2 0 0 0 Z " fill="#BEFB71" transform="translate(236,125)"/>
<path d="M0 0 C4.62 0 9.24 0 14 0 C12.02 0.99 12.02 0.99 10 2 C11.32 3.32 12.64 4.64 14 6 C13.67 6.99 13.34 7.98 13 9 C12.67 8.34 12.34 7.68 12 7 C9.6859378 6.26924352 7.35171131 5.59861742 5 5 C5.66 4.01 6.32 3.02 7 2 C4.69 1.67 2.38 1.34 0 1 C0 0.67 0 0.34 0 0 Z " fill="#C7F09E" transform="translate(341,99)"/>
<path d="M0 0 C3.63 0 7.26 0 11 0 C11 0.99 11 1.98 11 3 C7.04 3 3.08 3 -1 3 C-0.67 2.01 -0.34 1.02 0 0 Z " fill="#C4EF80" transform="translate(337,100)"/>
<path d="M0 0 C0.66 1.32 1.32 2.64 2 4 C-1.63 4.66 -5.26 5.32 -9 6 C-9.33 5.01 -9.66 4.02 -10 3 C-5.05 1.515 -5.05 1.515 0 0 Z " fill="#CCEC9C" transform="translate(336,100)"/>
<path d="M0 0 C3.96 0 7.92 0 12 0 C12 0.66 12 1.32 12 2 C9.75487738 3.12256131 8.48543351 3.13413762 6 3.125 C4.948125 3.12886719 4.948125 3.12886719 3.875 3.1328125 C2 3 2 3 0 2 C0 1.34 0 0.68 0 0 Z " fill="#F5F3FA" transform="translate(575,97)"/>
<path d="M0 0 C0.33 0 0.66 0 1 0 C1.06058594 0.91523438 1.12117188 1.83046875 1.18359375 2.7734375 C1.26738281 3.96195313 1.35117187 5.15046875 1.4375 6.375 C1.51871094 7.55835938 1.59992188 8.74171875 1.68359375 9.9609375 C1.81084936 12.91518901 1.81084936 12.91518901 3 15 C2.34 15 1.68 15 1 15 C0.67 15.66 0.34 16.32 0 17 C-2 15 -2 15 -2.1953125 13.0546875 C-2.13020833 11.03645833 -2.06510417 9.01822917 -2 7 C-1.67 7 -1.34 7 -1 7 C-0.67 4.69 -0.34 2.38 0 0 Z " fill="#D2FD8A" transform="translate(259,172)"/>
<path d="M0 0 C2.28350049 3.42525074 2.15366281 5.06942712 1.55859375 9.05859375 C0.76065949 11.83183379 -0.75544176 13.26227749 -3 15 C-2.855625 14.484375 -2.71125 13.96875 -2.5625 13.4375 C-1.92646265 10.83857116 -1.92646265 10.83857116 -1.5 7.5 C-1.13071653 4.91501571 -0.7015304 2.50546572 0 0 Z " fill="#CAF293" transform="translate(288,71)"/>
<path d="M0 0 C0.88336837 2.4667645 1.1312406 3.63859372 0.22265625 6.140625 C-0.16019531 6.83671875 -0.54304687 7.5328125 -0.9375 8.25 C-1.31777344 8.95640625 -1.69804687 9.6628125 -2.08984375 10.390625 C-2.39019531 10.92171875 -2.69054687 11.4528125 -3 12 C-3.66 12 -4.32 12 -5 12 C-4.54738642 10.56068883 -4.08767021 9.12361001 -3.625 7.6875 C-3.24214844 6.48673828 -3.24214844 6.48673828 -2.8515625 5.26171875 C-2 3 -2 3 0 0 Z " fill="#C5F882" transform="translate(242,74)"/>
<path d="M0 0 C0.33 2.64 0.66 5.28 1 8 C0.01 8.33 -0.98 8.66 -2 9 C-2.33 6.36 -2.66 3.72 -3 1 C-1 0 -1 0 0 0 Z " fill="#BCD88C" transform="translate(240,138)"/>
<path d="M0 0 C1.32 0 2.64 0 4 0 C4.73080266 1.97746603 5.39421747 3.98072489 6 6 C5.67 6.66 5.34 7.32 5 8 C4.01 7.67 3.02 7.34 2 7 C2.33 5.02 2.66 3.04 3 1 C2.01 0.67 1.02 0.34 0 0 Z " fill="#C8F976" transform="translate(318,103)"/>
<path d="M0 0 C2.875 -0.125 2.875 -0.125 6 0 C6.66 0.66 7.32 1.32 8 2 C5.29120665 3.35439668 2.99066732 3.06501451 0 3 C0 2.01 0 1.02 0 0 Z " fill="#F0F7F7" transform="translate(369,99)"/>
<path d="M0 0 C1.32 0 2.64 0 4 0 C4 0.66 4 1.32 4 2 C4.66 2 5.32 2 6 2 C6.33 3.32 6.66 4.64 7 6 C4.525 5.01 4.525 5.01 2 4 C1.67 4.66 1.34 5.32 1 6 C1 5.01 1 4.02 1 3 C1.66 3 2.32 3 3 3 C3 2.34 3 1.68 3 1 C2.01 0.67 1.02 0.34 0 0 Z " fill="#C4F283" transform="translate(281,64)"/>
<path d="M0 0 C6.75 0.75 6.75 0.75 9 3 C8.01 3.66 7.02 4.32 6 5 C3.63158688 3.42105792 1.93254772 2.0245738 0 0 Z " fill="#CBEC94" transform="translate(235,60)"/>
<path d="M0 0 C0.33 0.66 0.66 1.32 1 2 C1.66 2.33 2.32 2.66 3 3 C2.34 3 1.68 3 1 3 C1.33 4.65 1.66 6.3 2 8 C1.01 8.33 0.02 8.66 -1 9 C-1.125 2.25 -1.125 2.25 0 0 Z " fill="#F2F1F6" transform="translate(449,130)"/>
<path d="M0 0 C2.31 0.33 4.62 0.66 7 1 C6.01 1.495 6.01 1.495 5 2 C5 2.66 5 3.32 5 4 C3.35 3.67 1.7 3.34 0 3 C0 2.01 0 1.02 0 0 Z " fill="#BBE38F" transform="translate(322,103)"/>
<path d="" fill="#FFFFAA" transform="translate(0,0)"/>
</svg>
